<svg width="160" height="75" viewBox="0 0 160 75" fill="none" xmlns="http://www.w3.org/2000/svg">
<path d="M0 18.999H4.47649V40.2735H0V18.999Z" fill="#29292E"/>
<path d="M22.6057 32.6181C22.6057 32.6755 22.577 33.0769 22.5197 33.8223H10.8406C11.051 34.7781 11.5484 35.5331 12.3328 36.0874C13.1171 36.6417 14.0928 36.9189 15.2597 36.9189C16.0632 36.9189 16.771 36.8042 17.3832 36.5748C18.0145 36.3264 18.5979 35.9441 19.1336 35.428L21.5153 38.0084C20.0614 39.6714 17.9379 40.5029 15.1449 40.5029C13.4041 40.5029 11.8641 40.1684 10.525 39.4994C9.18583 38.8113 8.1528 37.8651 7.42584 36.6609C6.69889 35.4566 6.33542 34.0899 6.33542 32.5608C6.33542 31.0507 6.68933 29.6936 7.39715 28.4894C8.1241 27.266 9.10931 26.3199 10.3528 25.6508C11.6154 24.9627 13.0215 24.6187 14.571 24.6187C16.0823 24.6187 17.4501 24.9436 18.6745 25.5935C19.8988 26.2434 20.8553 27.18 21.544 28.4033C22.2518 29.6076 22.6057 31.0125 22.6057 32.6181ZM14.5997 28.0019C13.5858 28.0019 12.7345 28.2887 12.0458 28.8621C11.3571 29.4355 10.9363 30.2192 10.7832 31.2132H18.3875C18.2345 30.2384 17.8136 29.4642 17.1249 28.8908C16.4362 28.2982 15.5945 28.0019 14.5997 28.0019Z" fill="#29292E"/>
<path d="M34.3955 39.5281C33.9555 39.853 33.4103 40.1015 32.7599 40.2735C32.1286 40.4264 31.459 40.5029 30.7512 40.5029C28.9147 40.5029 27.4895 40.0346 26.4756 39.098C25.4808 38.1614 24.9834 36.7851 24.9834 34.9692V28.6327H22.6017V25.1921H24.9834V21.4361H29.4599V25.1921H33.3051V28.6327H29.4599V34.9119C29.4599 35.5618 29.6225 36.0683 29.9477 36.4315C30.2921 36.7755 30.7703 36.9476 31.3825 36.9476C32.0903 36.9476 32.6929 36.7564 33.1903 36.3741L34.3955 39.5281Z" fill="#29292E"/>
<path d="M55.5317 24.6187C57.4639 24.6187 58.9943 25.1921 60.123 26.339C61.2708 27.4667 61.8448 29.1679 61.8448 31.4426V40.2735H57.3683V32.1307C57.3683 30.9074 57.11 29.9994 56.5935 29.4069C56.0961 28.7952 55.3787 28.4894 54.4413 28.4894C53.3892 28.4894 52.557 28.8334 51.9448 29.5216C51.3326 30.1906 51.0266 31.1941 51.0266 32.5321V40.2735H46.5501V32.1307C46.5501 29.7031 45.5744 28.4894 43.6231 28.4894C42.5901 28.4894 41.7675 28.8334 41.1553 29.5216C40.5432 30.1906 40.2371 31.1941 40.2371 32.5321V40.2735H35.7606V24.848H40.0362V26.6257C40.6101 25.9758 41.3084 25.4788 42.131 25.1348C42.9727 24.7907 43.891 24.6187 44.8857 24.6187C45.9762 24.6187 46.9614 24.8385 47.8414 25.2781C48.7214 25.6986 49.4292 26.3199 49.9648 27.1418C50.5961 26.339 51.39 25.7177 52.3466 25.2781C53.3222 24.8385 54.3839 24.6187 55.5317 24.6187Z" fill="#29292E"/>
<path d="M80 32.6181C80 32.6755 79.9713 33.0769 79.9139 33.8223H68.2349C68.4453 34.7781 68.9427 35.5331 69.727 36.0874C70.5114 36.6417 71.487 36.9189 72.654 36.9189C73.4574 36.9189 74.1653 36.8042 74.7774 36.5748C75.4087 36.3264 75.9922 35.9441 76.5278 35.428L78.9096 38.0084C77.4557 39.6714 75.3322 40.5029 72.5392 40.5029C70.7983 40.5029 69.2583 40.1684 67.9192 39.4994C66.5801 38.8113 65.5471 37.8651 64.8201 36.6609C64.0932 35.4566 63.7297 34.0899 63.7297 32.5608C63.7297 31.0507 64.0836 29.6936 64.7914 28.4894C65.5184 27.266 66.5036 26.3199 67.747 25.6508C69.0096 24.9627 70.4157 24.6187 71.9653 24.6187C73.4766 24.6187 74.8444 24.9436 76.0687 25.5935C77.2931 26.2434 78.2496 27.18 78.9383 28.4033C79.6461 29.6076 80 31.0125 80 32.6181ZM71.994 28.0019C70.9801 28.0019 70.1288 28.2887 69.4401 28.8621C68.7514 29.4355 68.3305 30.2192 68.1775 31.2132H75.7818C75.6287 30.2384 75.2079 29.4642 74.5192 28.8908C73.8305 28.2982 72.9887 28.0019 71.994 28.0019Z" fill="#29292E"/>
<path d="M109.086 24.848L106.018 40.2735H101.775L102.061 38.7539C100.781 39.9199 99.2038 40.5029 97.3306 40.5029C96.1264 40.5029 95.0177 40.2257 94.0047 39.6714C92.9916 39.1171 92.1792 38.3238 91.5675 37.2916C90.975 36.2403 90.6787 35.0074 90.6787 33.593C90.6787 31.8918 91.0514 30.3626 91.7969 29.0055C92.5615 27.6292 93.5937 26.5588 94.8935 25.7942C96.1933 25.0105 97.6269 24.6187 99.1943 24.6187C101.564 24.6187 103.237 25.3928 104.212 26.9411L104.613 24.848H109.086ZM98.7068 36.8042C99.5861 36.8042 100.37 36.594 101.058 36.1734C101.746 35.7338 102.281 35.1317 102.664 34.3671C103.046 33.6025 103.237 32.7233 103.237 31.7293C103.237 30.678 102.922 29.8465 102.291 29.2348C101.679 28.6232 100.819 28.3173 99.7104 28.3173C98.8311 28.3173 98.0474 28.5372 97.3593 28.9768C96.6711 29.3973 96.1359 29.9899 95.7536 30.7544C95.3713 31.519 95.1802 32.3983 95.1802 33.3923C95.1802 34.4436 95.486 35.2751 96.0977 35.8867C96.7285 36.4984 97.5982 36.8042 98.7068 36.8042Z" fill="url(#paint0_linear)"/>
<path d="M114.632 40.5029C113.294 40.5029 112.023 40.3595 110.819 40.0728C109.634 39.767 108.707 39.3751 108.038 38.8973L109.758 35.6573C110.427 36.097 111.239 36.4506 112.195 36.7182C113.17 36.9858 114.145 37.1196 115.119 37.1196C116.133 37.1196 116.888 36.9954 117.385 36.7469C117.882 36.4793 118.13 36.1065 118.13 35.6287C118.13 35.2464 117.91 34.9692 117.471 34.7972C117.031 34.6252 116.324 34.4436 115.349 34.2524C114.24 34.0422 113.323 33.8128 112.596 33.5643C111.889 33.3158 111.268 32.9144 110.733 32.3601C110.217 31.7866 109.959 31.0125 109.959 30.0376C109.959 28.3364 110.666 27.008 112.08 26.0523C113.514 25.0965 115.387 24.6187 117.7 24.6187C118.77 24.6187 119.812 24.7333 120.825 24.9627C121.838 25.1921 122.698 25.5075 123.406 25.9089L121.8 29.1775C120.538 28.3938 119.019 28.0019 117.241 28.0019C116.266 28.0019 115.521 28.1453 115.005 28.432C114.508 28.7187 114.259 29.0819 114.259 29.5216C114.259 29.923 114.479 30.2192 114.919 30.4104C115.358 30.5824 116.094 30.7736 117.127 30.9838C118.216 31.1941 119.105 31.4235 119.793 31.6719C120.5 31.9013 121.112 32.2932 121.628 32.8475C122.144 33.4018 122.402 34.1568 122.402 35.1126C122.402 36.8329 121.676 38.1614 120.223 39.098C118.79 40.0346 116.926 40.5029 114.632 40.5029Z" fill="url(#paint1_linear)"/>
<path d="M134.595 31.5573L139.899 40.2735H134.71L131.04 34.2811L128.316 36.5462L127.57 40.2735H123.097L127.341 18.999H131.814L129.434 30.8978L136.831 24.848H142.652L134.595 31.5573Z" fill="url(#paint2_linear)"/>
<path d="M84.0842 15.9024V8.73438C84.0842 5.56737 86.6516 3 89.8186 3H151.463C154.63 3 157.198 5.56737 157.198 8.73438V48.8751C157.198 52.0421 154.63 54.6094 151.463 54.6094H141.428L144.782 70.2603C145.075 71.6282 143.436 72.563 142.408 71.6141L127.092 57.4766H89.8186C86.6516 57.4766 84.0842 54.9093 84.0842 51.7422V48.8751" stroke="url(#paint3_linear)" stroke-width="4.30079"/>
<defs>
<linearGradient id="paint0_linear" x1="90.6787" y1="18.999" x2="102.758" y2="53.1105" gradientUnits="userSpaceOnUse">
<stop stop-color="#485BFF"/>
<stop offset="1" stop-color="#FF59F8"/>
</linearGradient>
<linearGradient id="paint1_linear" x1="90.6787" y1="18.999" x2="102.758" y2="53.1105" gradientUnits="userSpaceOnUse">
<stop stop-color="#485BFF"/>
<stop offset="1" stop-color="#FF59F8"/>
</linearGradient>
<linearGradient id="paint2_linear" x1="90.6787" y1="18.999" x2="102.758" y2="53.1105" gradientUnits="userSpaceOnUse">
<stop stop-color="#485BFF"/>
<stop offset="1" stop-color="#FF59F8"/>
</linearGradient>
<linearGradient id="paint3_linear" x1="84.0842" y1="3" x2="144.295" y2="77.547" gradientUnits="userSpaceOnUse">
<stop stop-color="#485BFF"/>
<stop offset="1" stop-color="#FF59F8"/>
</linearGradient>
</defs>
</svg>
